<svg width="192" height="75" viewBox="0 0 192 75" fill="none" xmlns="http://www.w3.org/2000/svg">
<path fill-rule="evenodd" clip-rule="evenodd" d="M137.584 7.58942C137.658 7.71573 137.632 7.71047 137.726 7.84205C137.9 8.08942 137.811 7.94205 137.911 8.05258L138.458 9.07889C138.868 8.51573 138.463 7.85784 138.284 7.321C138.179 7.00521 138.142 6.72626 138.042 6.42099C137.932 6.07889 137.847 5.95784 137.753 5.69468C137.547 5.14731 137.547 4.48942 137.074 4.18942C136.532 3.84205 125.07 4.04731 124.38 4.05257C115.382 4.1052 106.383 4.00521 97.3836 4.04205V65.8052C97.3941 66.2947 97.3994 66.7894 97.3836 67.2684V72.8684C98.6466 72.8736 100.52 72.8789 102.788 72.8842V72.6368C109.987 72.6315 117.181 72.5736 124.38 72.6157C125.065 72.621 136.526 72.8263 137.074 72.4789C137.547 72.1789 137.547 71.5263 137.753 70.9736C137.853 70.7105 137.932 70.5894 138.042 70.2473C138.142 69.9368 138.184 69.6578 138.284 69.3473C138.463 68.8052 138.868 68.1526 138.458 67.5842L137.911 68.6105C137.816 68.721 137.905 68.5736 137.726 68.821C137.632 68.9526 137.658 68.9421 137.584 69.0736C137.153 69.7999 136.184 70.5999 135.384 70.9105C132.459 72.042 128.18 71.721 124.886 71.6842L102.972 71.6789C102.893 71.5315 102.83 71.2789 102.788 70.9473V71.6526C102.725 71.5052 102.699 71.3105 102.699 71.0578C102.704 59.0789 102.709 49.1473 102.715 39.1684H122.118L122.123 39.1736C122.349 39.321 122.507 39.6105 122.586 40.042C122.639 40.3263 122.67 40.6894 122.691 41.1421C122.707 41.3473 122.718 41.5368 122.718 41.7157C122.754 41.9052 122.77 42.0421 122.77 42.1368C122.781 42.2736 122.854 42.3421 122.981 42.3421C123.096 42.3421 123.154 42.1999 123.154 41.921C123.117 39.821 123.096 38.4894 123.081 37.9315C123.096 37.5842 123.117 36.3315 123.154 34.1736C123.154 33.8789 123.096 33.7263 122.981 33.7263C122.854 33.742 122.781 33.8157 122.77 33.942C122.77 34.4263 122.718 35.0052 122.618 35.6684C122.518 36.0684 122.344 36.3105 122.128 36.4473C121.918 36.5789 121.586 36.8842 121.207 36.9157C120.423 36.9789 119.36 37.021 118.013 37.0368V37.0789H102.715C102.715 29.0526 102.72 20.9052 102.715 11.5473C102.709 10.0947 102.515 5.79468 102.967 4.97363L124.88 4.96836C128.17 4.93152 132.453 4.61047 135.379 5.74205C136.179 6.0631 137.153 6.8631 137.584 7.58942Z" fill="#D0B498"/>
<path fill-rule="evenodd" clip-rule="evenodd" d="M89.6529 6.56842C89.6897 5.37369 89.7055 4.71579 89.7055 4.58421C89.7055 4.44737 89.695 4.32105 89.6792 4.2C89.6318 4.08948 89.5582 4.03158 89.4529 4.03158C89.2792 4.04737 89.074 4.15263 88.8477 4.35263C87.1584 5.51052 85.5165 6.64211 83.9167 7.75263C83.8009 7.83684 83.743 7.92631 83.743 8.02105C83.743 8.15789 83.7956 8.23684 83.8956 8.25263C83.9851 8.25263 84.0904 8.21579 84.2009 8.14737C84.5903 7.94737 85.106 7.69474 85.7375 7.37895C86.3848 7.06842 86.8374 6.88421 87.1058 6.87368C87.2058 6.86842 87.3584 6.89474 87.5163 6.94211V57.4421L60.9562 15.3368C60.8193 15.2105 60.6773 15.0895 60.5404 14.9632C59.5932 13.5579 58.5617 12.2316 57.446 10.9895C51.3573 4.2 42.9424 0 33.6488 0C24.3551 0 15.9403 4.2 9.8515 10.9895C3.76799 17.7737 0 27.1474 0 37.5C0 47.8526 3.76273 57.2263 9.8515 64.0105C15.9403 70.8 24.3551 75 33.6488 75C42.9424 75 51.3573 70.8 57.446 64.0105C63.5296 57.2263 67.2975 47.8526 67.2975 37.5C67.2975 36.8632 67.2818 36.2263 67.2554 35.6L89.8055 72.8316L89.6476 6.68947C89.6476 6.65263 89.6476 6.61053 89.6529 6.56842ZM64.9504 32.3263C65.0346 32.9895 65.1452 33.6263 65.2609 34.2632C65.4714 35.4368 65.6767 36.6 65.6767 37.8789C65.6767 47.6579 61.956 56.5105 56.3356 63.0158C50.4153 69.8684 42.3899 74.1263 34.3908 74.1263C26.5969 74.1263 19.4451 69.9632 14.2457 63.2895C9.04633 56.6158 5.79407 47.4316 5.79407 37.3895C5.79407 27.3421 8.95687 18.2421 14.0721 11.6632C19.1767 5.08421 26.2338 1.01579 34.0224 1.01579C39.3744 1.01579 44.8212 3.04211 49.6312 6.50526L49.7311 6.67368V37.5263C49.689 37.5789 49.6469 37.6316 49.6206 37.679C49.4996 37.8684 49.2575 37.9947 48.8996 38.0632C48.6628 38.1053 48.3629 38.1368 47.984 38.1474C47.8103 38.1632 47.6524 38.1684 47.5051 38.1684C47.3472 38.1947 47.2314 38.2105 47.1525 38.2105C47.042 38.2211 46.9788 38.2842 46.9788 38.3842C46.9788 38.4789 47.0999 38.5263 47.3314 38.5263C49.0786 38.5 50.1837 38.4789 50.6521 38.4632C50.9415 38.4789 51.9835 38.4947 53.778 38.5263C54.0254 38.5263 54.1464 38.4789 54.1464 38.3842C54.1306 38.2789 54.0727 38.2211 53.9675 38.2105C53.5623 38.2105 53.0834 38.1684 52.5308 38.0842C52.1993 38 51.994 37.8579 51.8835 37.679C51.8677 37.6474 51.8414 37.6158 51.8151 37.5789V10.1158L64.8505 31.6368C64.882 31.8632 64.9241 32.0947 64.9504 32.3263Z" fill="#D0B498"/>
<path fill-rule="evenodd" clip-rule="evenodd" d="M148.567 44.0684C148.404 44.0684 148.215 44.0737 147.994 44.0789C147.778 44.0947 147.646 44.1 147.599 44.1C147.43 44.0842 147.057 44.0789 146.488 44.0737C146.383 44.0737 146.331 44.1 146.331 44.1526C146.331 44.1895 146.357 44.2105 146.404 44.2105C146.525 44.2105 146.636 44.221 146.741 44.2421C146.941 44.2737 147.062 44.3579 147.115 44.4842C147.157 44.621 147.183 44.8894 147.183 45.2842V47.0105C147.183 47.1789 147.115 47.3 146.983 47.3684C146.852 47.4368 146.678 47.4842 146.462 47.5158C146.246 47.5579 146.041 47.5842 145.857 47.5842C144.931 47.5947 144.068 47.2316 143.273 46.4947C143.189 46.4 143.089 46.2684 142.978 46.0947C142.857 45.9315 142.747 45.7316 142.631 45.4842C142.368 44.9947 142.231 44.3894 142.226 43.6737C142.247 42.4579 142.573 41.5947 143.205 41.0947C143.578 40.7947 143.952 40.6105 144.315 40.5316C144.673 40.4579 145.004 40.421 145.31 40.4263C145.952 40.4316 146.473 40.5158 146.867 40.6789C147.257 40.8579 147.504 41.0473 147.62 41.2473C147.699 41.3789 147.757 41.5 147.788 41.6158C147.815 41.7421 147.825 41.8473 147.825 41.921C147.836 42.021 147.857 42.0737 147.899 42.0737C147.957 42.0789 147.983 42.0105 147.983 41.8631C148.009 40.9421 148.036 40.4579 148.057 40.421C148.062 40.3737 148.025 40.3473 147.936 40.3316C147.651 40.3158 147.388 40.2789 147.136 40.2263C147.036 40.2 146.841 40.1631 146.552 40.1158C146.262 40.0789 145.957 40.0579 145.631 40.0526C145.252 40.0473 144.831 40.0789 144.383 40.1579C143.92 40.2368 143.468 40.4158 143.015 40.6947C142.568 40.9789 142.189 41.4 141.878 41.9631C141.547 42.5263 141.379 43.2158 141.373 44.0368C141.379 44.6737 141.5 45.2473 141.736 45.7526C141.968 46.2579 142.236 46.6526 142.542 46.9368C143.11 47.4105 143.694 47.7105 144.289 47.8368C144.889 47.9631 145.383 48.0263 145.778 48.021C146.073 48.021 146.415 47.9894 146.799 47.9158C147.188 47.8473 147.541 47.7316 147.867 47.5631C147.925 47.5316 147.962 47.4894 147.983 47.4316C147.988 47.3737 147.994 47.2315 147.994 47.0158V45.8789C147.994 45.4737 147.999 45.121 148.015 44.821C148.02 44.6368 148.057 44.4947 148.115 44.4052C148.167 44.3158 148.251 44.2631 148.378 44.2421C148.483 44.221 148.567 44.2105 148.625 44.2105C148.672 44.2105 148.699 44.1895 148.704 44.1526C148.725 44.0947 148.672 44.0684 148.567 44.0684Z" fill="#D0B498"/>
<path fill-rule="evenodd" clip-rule="evenodd" d="M174.169 40.1947C174.012 40.1947 173.848 40.1999 173.675 40.2052C173.506 40.221 173.396 40.2262 173.343 40.2262C173.185 40.2105 172.838 40.1999 172.301 40.1947C172.196 40.1947 172.143 40.221 172.143 40.2736C172.143 40.3157 172.17 40.3368 172.222 40.3368C172.343 40.3368 172.454 40.3473 172.559 40.3684C172.722 40.3947 172.833 40.4578 172.891 40.5526C172.943 40.6368 172.975 40.7684 172.98 40.9473C172.996 41.0473 173.001 41.7789 173.001 43.142V44.4105C173.001 44.9315 172.964 45.3999 172.891 45.821C172.806 46.242 172.654 46.5999 172.428 46.9052C172.033 47.3789 171.517 47.621 170.88 47.6368C170.607 47.6368 170.359 47.5999 170.117 47.521C169.875 47.4473 169.628 47.2999 169.386 47.0736C169.175 46.8736 169.002 46.5789 168.865 46.1999C168.717 45.8315 168.644 45.2841 168.644 44.5684V43.142C168.644 42.3736 168.649 41.8473 168.654 41.5631C168.654 41.2841 168.66 41.0789 168.665 40.9473C168.67 40.7631 168.702 40.621 168.76 40.5315C168.812 40.442 168.902 40.3894 169.028 40.3684C169.133 40.3473 169.217 40.3368 169.275 40.3368C169.323 40.3368 169.344 40.3157 169.354 40.2736C169.354 40.221 169.302 40.1947 169.202 40.1947C169.033 40.1947 168.849 40.1999 168.639 40.2052C168.428 40.221 168.291 40.2262 168.228 40.2262C168.028 40.2105 167.654 40.1999 167.097 40.1947C166.997 40.1947 166.944 40.221 166.944 40.2736C166.944 40.3157 166.97 40.3368 167.023 40.3368C167.144 40.3368 167.254 40.3473 167.36 40.3684C167.523 40.3947 167.633 40.4578 167.691 40.5526C167.749 40.6368 167.775 40.7736 167.781 40.9526C167.791 41.0526 167.802 41.7841 167.802 43.1473V44.6315C167.802 45.3631 167.886 45.9315 168.054 46.3368C168.212 46.7473 168.412 47.0736 168.654 47.2999C169.028 47.6263 169.417 47.8315 169.817 47.9105C170.007 47.9578 170.18 47.9894 170.338 47.9947C170.491 48.0157 170.607 48.0263 170.686 48.0263C170.986 48.0263 171.312 47.9789 171.665 47.8841C172.012 47.7894 172.364 47.5841 172.717 47.2736C173.096 46.8947 173.343 46.4368 173.464 45.8947C173.575 45.3526 173.627 44.7999 173.622 44.2368V43.1473C173.622 42.3789 173.627 41.8526 173.633 41.5684C173.633 41.2894 173.638 41.0841 173.643 40.9526C173.648 40.7684 173.68 40.6262 173.743 40.5368C173.796 40.4473 173.885 40.3947 174.006 40.3736C174.112 40.3526 174.196 40.342 174.254 40.342C174.296 40.342 174.327 40.321 174.327 40.2789C174.322 40.221 174.269 40.1947 174.169 40.1947Z" fill="#D0B498"/>
<path fill-rule="evenodd" clip-rule="evenodd" d="M167.918 27.9736C168.002 27.9736 168.107 27.9894 168.228 28.0157C168.439 28.0526 168.544 28.2473 168.56 28.5842C168.575 28.6842 168.581 29.4157 168.581 30.7789V32.5684C168.581 33.5789 168.56 34.3157 168.528 34.7789C168.512 34.9263 168.491 35.0473 168.449 35.1421C168.412 35.2421 168.344 35.3105 168.244 35.3368C168.144 35.3631 168.044 35.3789 167.949 35.3789C167.896 35.3894 167.87 35.4105 167.87 35.4421C167.87 35.4947 167.923 35.521 168.028 35.521C168.47 35.5052 168.791 35.4999 168.991 35.4947C169.149 35.4999 169.549 35.5105 170.191 35.521C170.296 35.521 170.349 35.4947 170.349 35.4421C170.349 35.4105 170.323 35.3894 170.27 35.3789C170.144 35.3789 169.996 35.3631 169.828 35.3421C169.686 35.3157 169.586 35.2526 169.538 35.1473C169.486 35.0578 169.454 34.9315 169.444 34.7842C169.402 34.321 169.386 33.5842 169.396 32.5789V30.7894C169.396 30.021 169.402 29.4947 169.407 29.2105C169.407 28.9315 169.412 28.7263 169.417 28.5947C169.423 28.4105 169.454 28.2736 169.512 28.1789C169.565 28.0894 169.649 28.0368 169.775 28.0157C169.88 27.9947 169.965 27.9842 170.028 27.9842C170.075 27.9842 170.102 27.9631 170.107 27.921C170.107 27.8684 170.054 27.8421 169.949 27.8421C169.786 27.8421 169.596 27.8473 169.381 27.8526C169.165 27.8684 169.038 27.8736 168.991 27.8736C168.796 27.8578 168.47 27.8526 167.996 27.8421C167.891 27.8421 167.839 27.8684 167.839 27.921C167.844 27.9526 167.87 27.9736 167.918 27.9736Z" fill="#D0B498"/>
<path d="M152.398 27.9737C152.519 27.9737 152.625 27.9842 152.73 28.0053C152.898 28.0316 153.009 28.0948 153.067 28.1895C153.119 28.2737 153.146 28.4053 153.151 28.5895C153.167 28.6895 153.172 29.4211 153.172 30.7842V32.5737C153.172 33.5842 153.151 34.3211 153.119 34.779C153.109 34.9263 153.082 35.0474 153.046 35.1421C153.009 35.2421 152.94 35.3105 152.84 35.3369C152.74 35.3632 152.64 35.379 152.54 35.379C152.488 35.3895 152.461 35.4105 152.461 35.4421C152.461 35.4948 152.514 35.5211 152.625 35.5211C153.072 35.5053 153.393 35.5 153.588 35.4947C153.798 35.5158 154.603 35.5316 156.014 35.5526C156.214 35.5526 156.345 35.5369 156.419 35.5158C156.487 35.4895 156.535 35.4158 156.561 35.2948C156.593 35.1579 156.624 34.9737 156.65 34.7421C156.682 34.5158 156.698 34.3684 156.698 34.3053C156.703 34.2105 156.682 34.1632 156.635 34.1579C156.587 34.1579 156.561 34.2053 156.545 34.3053C156.487 34.7 156.34 34.9421 156.098 35.0421C155.966 35.0895 155.808 35.1158 155.629 35.1316C155.445 35.1474 155.282 35.1526 155.145 35.1526C154.677 35.1579 154.372 35.1053 154.224 34.9947C154.077 34.879 154.003 34.6526 153.998 34.3211C153.988 33.8105 153.988 33.2316 153.998 32.5842V31.6895C153.998 31.6421 154.024 31.6211 154.067 31.6211C154.488 31.6211 154.961 31.6369 155.482 31.6684C155.672 31.6895 155.803 31.7316 155.877 31.8C155.94 31.8737 155.982 31.9474 155.993 32.0211C156.019 32.1474 156.029 32.2632 156.029 32.3526C156.029 32.4158 156.056 32.4474 156.103 32.4474C156.14 32.4474 156.166 32.4211 156.172 32.3737C156.172 32.3369 156.172 32.2948 156.172 32.2579C156.172 32.1105 156.187 31.8948 156.214 31.6105C156.261 31.2842 156.293 31.0948 156.298 31.0421C156.298 30.9895 156.277 30.9632 156.245 30.9632C156.214 30.9632 156.166 31.0053 156.103 31.0947C156.024 31.1842 155.866 31.2316 155.635 31.2369C155.482 31.2421 155.214 31.2474 154.83 31.2474C154.435 31.2526 154.177 31.2579 154.067 31.2579C154.019 31.2579 153.998 31.2263 154.009 31.1579V28.3474C154.009 28.279 154.03 28.2474 154.067 28.2474C154.167 28.2474 154.388 28.2474 154.73 28.2474C155.072 28.2526 155.303 28.2632 155.419 28.279C155.677 28.3053 155.856 28.3526 155.956 28.4105C156.05 28.4684 156.108 28.5421 156.124 28.6263C156.161 28.7737 156.182 28.8947 156.182 28.9895C156.182 29.079 156.208 29.1211 156.261 29.1211C156.303 29.1158 156.329 29.079 156.335 29.0053C156.356 28.7737 156.372 28.5474 156.382 28.3369C156.429 28.0737 156.456 27.9158 156.461 27.8632C156.461 27.8105 156.445 27.779 156.424 27.7737C156.377 27.779 156.335 27.8 156.287 27.8263C156.203 27.8474 156.061 27.8632 155.861 27.8737C155.035 27.879 154.282 27.8842 153.609 27.8842C153.435 27.8684 153.061 27.8632 152.493 27.8526C152.388 27.8526 152.335 27.879 152.335 27.9316C152.314 27.9526 152.34 27.9737 152.398 27.9737Z" fill="#D0B498"/>
<path fill-rule="evenodd" clip-rule="evenodd" d="M172.964 34.5631C173.696 35.2841 174.78 35.6526 176.211 35.6578C176.538 35.6578 176.864 35.6368 177.185 35.5999C177.511 35.5578 177.78 35.4999 177.985 35.4263C178.069 35.3841 178.132 35.3473 178.164 35.3105C178.19 35.2789 178.216 35.2157 178.243 35.1262C178.295 34.9262 178.343 34.6736 178.39 34.3684C178.437 34.0631 178.464 33.8841 178.464 33.8262C178.464 33.7315 178.443 33.6841 178.39 33.6736C178.337 33.6736 178.306 33.7262 178.295 33.8262C178.28 33.9262 178.243 34.0631 178.185 34.2315C178.127 34.4052 178.043 34.5578 177.932 34.6789C177.737 34.8789 177.495 35.0105 177.211 35.0736C176.922 35.1526 176.595 35.1894 176.222 35.1894C175.154 35.1736 174.301 34.7947 173.664 34.0473C173.006 33.321 172.675 32.4631 172.67 31.4684C172.664 30.9473 172.728 30.4631 172.859 30.0157C172.98 29.5684 173.212 29.1736 173.559 28.821C173.648 28.7262 173.754 28.6315 173.88 28.542C174.006 28.4631 174.154 28.3841 174.333 28.3105C174.512 28.2368 174.727 28.1789 174.975 28.1368C175.211 28.0947 175.496 28.0736 175.822 28.0736C176.738 28.0947 177.39 28.2894 177.785 28.6526C177.916 28.7684 178.016 28.9157 178.09 29.0947C178.158 29.2736 178.195 29.4684 178.195 29.6789C178.19 29.821 178.216 29.8947 178.28 29.8947C178.332 29.8999 178.364 29.8315 178.369 29.6789C178.374 29.421 178.385 29.0736 178.395 28.6315C178.422 28.2999 178.437 28.1105 178.448 28.0631C178.458 28.0052 178.416 27.9736 178.322 27.9578C178.022 27.9315 177.685 27.8789 177.316 27.8105C176.795 27.7315 176.322 27.6894 175.89 27.6894C175.143 27.6947 174.527 27.7999 174.048 27.9947C173.564 28.2052 173.18 28.4631 172.885 28.7736C172.459 29.2368 172.17 29.7263 172.012 30.2368C171.854 30.7526 171.78 31.1894 171.786 31.5473C171.78 32.0368 171.859 32.5473 172.028 33.0736C172.196 33.6105 172.512 34.1052 172.964 34.5631Z" fill="#D0B498"/>
<path fill-rule="evenodd" clip-rule="evenodd" d="M165.049 28.9894C164.76 28.6789 164.444 28.4368 164.097 28.2736C163.739 28.1052 163.381 27.9947 163.013 27.9368C162.655 27.8684 162.313 27.8315 161.981 27.8262C161.655 27.8315 161.366 27.8368 161.108 27.8368C160.808 27.8368 160.529 27.842 160.271 27.8473C160.013 27.8631 159.85 27.8684 159.782 27.8684C159.608 27.8526 159.24 27.8473 158.666 27.8368C158.561 27.8368 158.508 27.8631 158.508 27.9157C158.508 27.9578 158.534 27.9789 158.587 27.9789C158.708 27.9789 158.813 27.9894 158.919 28.0105C159.087 28.0368 159.198 28.0999 159.255 28.1947C159.308 28.2789 159.334 28.4105 159.34 28.5947C159.355 28.6947 159.361 29.4263 159.361 30.7894V32.5789C159.361 33.5894 159.34 34.3262 159.308 34.7894C159.292 34.9368 159.271 35.0578 159.229 35.1526C159.192 35.2526 159.124 35.321 159.024 35.3473C158.924 35.3736 158.824 35.3894 158.729 35.3894C158.677 35.3999 158.65 35.421 158.65 35.4526C158.65 35.5052 158.703 35.5315 158.808 35.5315C159.255 35.5157 159.576 35.5052 159.771 35.4999C159.85 35.4999 160.118 35.521 160.582 35.5578C161.039 35.5947 161.497 35.6157 161.95 35.621C162.776 35.6052 163.429 35.4631 163.918 35.2052C164.165 35.0841 164.376 34.9526 164.539 34.8157C164.702 34.6789 164.834 34.5578 164.934 34.4526C165.223 34.1473 165.465 33.7526 165.67 33.2631C165.881 32.7841 165.991 32.2262 165.997 31.5894C165.991 30.9789 165.897 30.4578 165.707 30.0315C165.528 29.5894 165.307 29.2473 165.049 28.9894ZM165.081 32.5736C165.044 32.8052 164.992 33.0262 164.928 33.242C164.792 33.6789 164.592 34.0368 164.334 34.3105C163.723 34.9368 162.939 35.2526 161.987 35.2578C161.413 35.2578 161.008 35.2105 160.766 35.1157C160.524 35.0368 160.371 34.9473 160.313 34.8526C160.276 34.7841 160.25 34.6736 160.245 34.5052C160.224 34.3473 160.213 34.2052 160.208 34.0789C160.192 33.7894 160.187 33.0526 160.187 31.8736V30.6157C160.187 29.6736 160.192 28.9526 160.197 28.4526C160.192 28.3473 160.229 28.2841 160.313 28.2473C160.371 28.2263 160.466 28.2105 160.603 28.1894C160.734 28.1841 160.85 28.1789 160.955 28.1789C161.55 28.1736 162.118 28.2368 162.666 28.3736C163.213 28.5157 163.718 28.8315 164.181 29.3262C164.297 29.4262 164.402 29.5578 164.502 29.7105C164.613 29.8736 164.718 30.0631 164.813 30.2736C164.913 30.4894 164.992 30.7262 165.049 30.9894C165.102 31.2578 165.134 31.5578 165.134 31.8841C165.123 32.1262 165.107 32.3526 165.081 32.5736Z" fill="#D0B498"/>
<path fill-rule="evenodd" clip-rule="evenodd" d="M151.083 35.4263C151.083 35.3894 151.056 35.3736 151.004 35.3736C150.883 35.3841 150.672 35.3526 150.362 35.2841C150.162 35.1947 150.03 35.042 149.956 34.8263C149.883 34.6052 149.841 34.3999 149.825 34.2052L149.172 27.9684C149.167 27.8684 149.157 27.7947 149.146 27.7578C149.125 27.7157 149.099 27.6947 149.057 27.6947C148.993 27.6999 148.946 27.7578 148.915 27.8578L146.02 34.2368L143.005 27.8473C142.963 27.742 142.91 27.6947 142.857 27.6947C142.805 27.6999 142.773 27.7631 142.752 27.8789L142.042 34.5052C142.026 34.7052 142.005 34.8841 141.963 35.0473C141.91 35.2105 141.8 35.3105 141.647 35.3526C141.515 35.3841 141.421 35.3894 141.352 35.3841C141.284 35.3841 141.252 35.3999 141.252 35.4368C141.252 35.4947 141.31 35.5263 141.421 35.5263C141.789 35.5105 142.063 35.5052 142.247 35.4999C142.41 35.5052 142.715 35.5157 143.163 35.5263C143.284 35.5263 143.341 35.4999 143.341 35.4368C143.331 35.3999 143.305 35.3841 143.263 35.3841C143.189 35.3841 143.068 35.3684 142.889 35.3315C142.726 35.2841 142.642 35.1789 142.631 35.021C142.631 34.8473 142.636 34.6684 142.642 34.4999L143.036 29.7841H143.073C143.52 30.7947 143.952 31.7578 144.378 32.6789C144.662 33.2684 145.041 34.0526 145.525 35.0368C145.689 35.3578 145.789 35.5157 145.836 35.4999C145.889 35.521 145.994 35.342 146.157 34.9684L148.572 29.6947H148.599L149.072 34.9315C149.093 35.142 149.083 35.2631 149.03 35.2999C148.983 35.3052 148.962 35.3262 148.962 35.3631C148.951 35.4105 149.041 35.4473 149.236 35.4631C149.857 35.4947 150.404 35.5157 150.877 35.521C151.004 35.5157 151.072 35.4841 151.083 35.4263Z" fill="#D0B498"/>
<path fill-rule="evenodd" clip-rule="evenodd" d="M186.458 35.3736C186.352 35.3841 186.221 35.3631 186.063 35.3104C185.963 35.2894 185.842 35.2052 185.705 35.0578C185.552 34.9104 185.389 34.6157 185.216 34.1841C184.221 31.5631 183.458 29.5157 182.921 28.0578C182.821 27.7999 182.747 27.6789 182.7 27.6894C182.663 27.6736 182.59 27.8052 182.484 28.0841L180.253 34.3947C180.174 34.6525 180.069 34.8683 179.943 35.0368C179.821 35.2104 179.643 35.3157 179.427 35.3526C179.327 35.3683 179.232 35.3736 179.137 35.3736C179.085 35.3736 179.058 35.3947 179.053 35.4368C179.053 35.4894 179.116 35.5157 179.237 35.5157C179.79 35.4999 180.158 35.4947 180.348 35.4894C180.537 35.4947 180.795 35.5052 181.116 35.5157C181.206 35.5157 181.253 35.4894 181.258 35.4368C181.258 35.3947 181.227 35.3736 181.163 35.3736H181.069C180.984 35.3736 180.9 35.3473 180.832 35.2947C180.742 35.2526 180.695 35.1841 180.695 35.0789C180.695 34.8894 180.742 34.6631 180.832 34.3999L181.421 32.5947C181.442 32.542 181.474 32.5157 181.521 32.5157H183.637C183.679 32.5157 183.71 32.5368 183.721 32.5789L184.637 35.0789C184.663 35.1631 184.668 35.2262 184.658 35.2631C184.637 35.3104 184.616 35.342 184.584 35.3526C184.537 35.3578 184.51 35.3841 184.51 35.4262C184.51 35.4736 184.61 35.4947 184.81 35.4947C185.589 35.5104 186.105 35.5157 186.352 35.5157C186.479 35.5157 186.542 35.4894 186.547 35.4368C186.552 35.3947 186.526 35.3736 186.458 35.3736ZM183.516 32.1526H181.637C181.605 32.1526 181.595 32.1262 181.611 32.0841L182.474 29.342C182.532 29.1894 182.579 29.1894 182.621 29.342L183.558 32.0841C183.579 32.1315 183.563 32.1526 183.516 32.1526Z" fill="#D0B498"/>
<path fill-rule="evenodd" clip-rule="evenodd" d="M191.946 34.0999C191.894 34.0999 191.862 34.1473 191.857 34.2315C191.825 34.4473 191.736 34.6526 191.599 34.842C191.478 34.9789 191.32 35.0631 191.115 35.0947C190.91 35.1262 190.668 35.1473 190.399 35.1473C190.026 35.1473 189.752 35.1262 189.578 35.0841C189.41 35.0473 189.289 34.9894 189.215 34.9105C189.131 34.8262 189.073 34.5947 189.047 34.2315C189.015 33.8736 188.999 33.3262 188.999 32.5841V30.7736C188.999 30.0052 189.005 29.4789 189.01 29.1947C189.01 28.9157 189.015 28.7105 189.02 28.5789C189.026 28.3947 189.057 28.2578 189.115 28.1631C189.178 28.0736 189.273 28.021 189.399 27.9999C189.531 27.9789 189.641 27.9684 189.731 27.9684C189.773 27.9684 189.799 27.9473 189.805 27.9052C189.805 27.8526 189.752 27.8262 189.652 27.8262C189.478 27.8262 189.278 27.8315 189.041 27.8368C188.789 27.8526 188.641 27.8578 188.589 27.8578C188.415 27.842 188.047 27.8368 187.478 27.8262C187.373 27.8262 187.321 27.8526 187.321 27.9052C187.321 27.9473 187.347 27.9684 187.4 27.9684C187.521 27.9684 187.626 27.9789 187.731 27.9999C187.899 28.0263 188.01 28.0894 188.068 28.1841C188.121 28.2684 188.147 28.3999 188.152 28.5789C188.168 28.6789 188.173 29.4105 188.173 30.7736V32.5631C188.173 33.5736 188.152 34.3105 188.121 34.7736C188.105 34.921 188.084 35.042 188.047 35.1368C188.01 35.2368 187.942 35.3052 187.847 35.3315C187.747 35.3578 187.652 35.3736 187.547 35.3736C187.494 35.3841 187.468 35.4052 187.468 35.4368C187.468 35.4894 187.526 35.5157 187.631 35.5157C188.057 35.4999 188.378 35.4947 188.599 35.4894C189.057 35.5105 189.936 35.5262 191.231 35.5473C191.489 35.5473 191.652 35.5315 191.725 35.4999C191.789 35.4578 191.831 35.3841 191.852 35.2789C191.894 35.1105 191.931 34.9157 191.962 34.6999C191.988 34.4789 191.999 34.3315 191.999 34.2631C192.004 34.1526 191.988 34.0999 191.946 34.0999Z" fill="#D0B498"/>
<path fill-rule="evenodd" clip-rule="evenodd" d="M180.274 40.7736C180.242 40.721 180.19 40.6684 180.111 40.6105C180.027 40.542 179.911 40.4789 179.774 40.4157C179.637 40.3473 179.458 40.2947 179.243 40.2526C179.027 40.2157 178.764 40.1947 178.448 40.1947C177.916 40.2105 177.506 40.221 177.211 40.2262C177.022 40.2105 176.648 40.1999 176.096 40.1947C175.99 40.1947 175.938 40.221 175.938 40.2736C175.938 40.3157 175.964 40.3368 176.017 40.3368C176.138 40.3368 176.243 40.3473 176.348 40.3684C176.517 40.3947 176.627 40.4578 176.685 40.5526C176.738 40.6368 176.764 40.7736 176.769 40.9526C176.785 41.0526 176.79 41.7841 176.79 43.1473V44.9368C176.79 45.9473 176.769 46.6789 176.738 47.142C176.722 47.2894 176.701 47.4105 176.659 47.5052C176.622 47.6052 176.553 47.6736 176.453 47.6999C176.353 47.7262 176.253 47.742 176.159 47.742C176.106 47.7526 176.08 47.7736 176.08 47.8052C176.08 47.8578 176.132 47.8841 176.238 47.8841C176.68 47.8684 176.995 47.8631 177.174 47.8578C177.338 47.8631 177.737 47.8736 178.385 47.8841C178.49 47.8841 178.543 47.8578 178.543 47.8052C178.543 47.7736 178.516 47.7526 178.469 47.742C178.343 47.742 178.195 47.7263 178.027 47.7052C177.88 47.6789 177.785 47.6157 177.737 47.5105C177.685 47.4157 177.653 47.2947 177.643 47.1473C177.601 46.6841 177.585 45.9473 177.59 44.9368V40.7578C177.59 40.6473 177.616 40.5841 177.674 40.5631C177.78 40.521 177.922 40.4947 178.095 40.4947C178.222 40.4894 178.411 40.5052 178.669 40.542C178.927 40.5894 179.185 40.742 179.443 41.0105C179.579 41.1473 179.685 41.2841 179.758 41.4262C179.837 41.5736 179.895 41.721 179.927 41.8631C179.964 42.0052 179.99 42.1368 179.995 42.2526C179.995 42.3736 179.995 42.4789 179.995 42.5736C179.99 43.0526 179.827 43.442 179.5 43.7473C179.185 44.0631 178.779 44.2262 178.285 44.2368C178.185 44.2368 178.116 44.2368 178.08 44.2473C178.043 44.2631 178.022 44.2841 178.022 44.3262C178.027 44.3736 178.064 44.3999 178.127 44.3999C178.201 44.4052 178.269 44.4105 178.332 44.4105C179.043 44.4052 179.627 44.1841 180.074 43.742C180.516 43.3105 180.742 42.7263 180.748 41.9894C180.742 41.7105 180.69 41.4684 180.59 41.2526C180.506 41.0315 180.395 40.8736 180.274 40.7736Z" fill="#D0B498"/>
<path fill-rule="evenodd" clip-rule="evenodd" d="M157.75 47.7368C157.687 47.7473 157.561 47.7368 157.366 47.7052C157.245 47.6894 157.087 47.6368 156.887 47.5368C156.677 47.442 156.435 47.2526 156.166 46.9789C155.603 46.3263 154.924 45.4578 154.119 44.3789C154.561 43.9526 154.872 43.5473 155.056 43.1684C155.224 42.7789 155.314 42.3999 155.314 42.0315C155.309 41.6684 155.224 41.3736 155.066 41.1315C155.003 41.0105 154.935 40.9105 154.861 40.8262C154.782 40.742 154.703 40.6841 154.635 40.642C154.372 40.4526 154.088 40.3263 153.782 40.2631C153.472 40.2157 153.161 40.1947 152.835 40.1947C152.351 40.2105 151.967 40.221 151.677 40.2262C151.504 40.2105 151.135 40.1999 150.562 40.1947C150.456 40.1947 150.404 40.221 150.404 40.2736C150.404 40.3157 150.43 40.3368 150.483 40.3368C150.604 40.3368 150.709 40.3473 150.814 40.3684C150.983 40.3947 151.093 40.4578 151.151 40.5526C151.204 40.6368 151.23 40.7736 151.235 40.9526C151.251 41.0526 151.256 41.7841 151.256 43.1473V44.9368C151.256 45.9473 151.235 46.6789 151.204 47.142C151.188 47.2894 151.167 47.4105 151.125 47.5052C151.088 47.6052 151.02 47.6736 150.92 47.6999C150.82 47.7262 150.72 47.742 150.625 47.742C150.572 47.7526 150.546 47.7736 150.546 47.8052C150.546 47.8578 150.599 47.8841 150.704 47.8841C151.156 47.8684 151.462 47.8631 151.625 47.8578C151.783 47.8631 152.183 47.8736 152.83 47.8841C152.935 47.8841 152.988 47.8578 152.988 47.8052C152.988 47.7736 152.961 47.7526 152.914 47.742C152.788 47.742 152.64 47.7263 152.467 47.7052C152.325 47.6789 152.23 47.6157 152.183 47.5105C152.13 47.4157 152.098 47.2947 152.088 47.1473C152.046 46.6841 152.03 45.942 152.035 44.9315V44.6841C152.035 44.6315 152.062 44.6052 152.109 44.6052L153.319 44.6262C153.372 44.6262 153.414 44.6473 153.446 44.6841C153.698 45.042 154.051 45.542 154.519 46.1947C154.793 46.5789 155.035 46.8894 155.251 47.1368C155.451 47.3841 155.656 47.5736 155.851 47.6947C155.977 47.7631 156.114 47.8157 156.272 47.842C156.424 47.8736 156.635 47.8894 156.898 47.8894H157.598C157.766 47.8894 157.845 47.8631 157.84 47.8105C157.829 47.7631 157.798 47.742 157.75 47.7368ZM153.525 44.2684C153.393 44.2947 153.267 44.3105 153.151 44.3105C152.925 44.3105 152.719 44.2947 152.53 44.2578C152.335 44.2263 152.198 44.1894 152.114 44.1473C152.067 44.1105 152.04 44.0684 152.04 44.021V40.6999C152.04 40.642 152.067 40.5999 152.125 40.5789C152.251 40.5473 152.472 40.5263 152.782 40.5157C153.903 40.542 154.472 41.221 154.493 42.5526C154.477 43.342 154.277 43.8631 153.893 44.1157C153.777 44.1947 153.656 44.242 153.525 44.2684Z" fill="#D0B498"/>
<path fill-rule="evenodd" clip-rule="evenodd" d="M161.829 40.0526C160.487 40.0894 159.503 40.542 158.882 41.4157C158.256 42.2683 157.95 43.1368 157.956 44.0262C157.95 44.9947 158.25 45.8841 158.855 46.6999C159.461 47.5526 160.429 47.9894 161.771 48.021C162.976 47.9999 163.929 47.5894 164.634 46.7894C165.334 45.9999 165.686 45.0262 165.692 43.8631C165.681 42.6683 165.313 41.7315 164.586 41.0631C163.881 40.3947 162.96 40.0578 161.829 40.0526ZM164.455 45.9262C164.265 46.3841 164.018 46.742 163.723 46.9947C163.434 47.242 163.139 47.4052 162.839 47.4947C162.539 47.5894 162.271 47.6368 162.034 47.6368C161.129 47.6315 160.382 47.2736 159.797 46.5683C159.198 45.8789 158.892 44.9368 158.882 43.7473C158.887 42.6262 159.166 41.7894 159.708 41.2368C160.24 40.6841 160.924 40.3999 161.755 40.3999C162.56 40.3999 163.255 40.7157 163.839 41.3526C164.429 41.9894 164.728 42.9262 164.744 44.1526C164.744 44.8789 164.644 45.4736 164.455 45.9262Z" fill="#D0B498"/>
<path d="M134.811 24.2263H134.353V51.6369H134.811V24.2263Z" fill="#D0B498"/>
</svg>
