<svg width="55" height="75" viewBox="0 0 55 75" fill="none" xmlns="http://www.w3.org/2000/svg">
<path d="M19.0087 0.160964C16.4398 0.729701 14.6955 2.31787 13.8074 4.88256L13.5114 5.74103L13.448 18.6718H17.9938L18.0255 12.5766C18.0572 5.88053 18.0467 6.05223 18.7233 5.33326C19.3153 4.6894 19.4738 4.66794 22.6559 4.66794C25.542 4.66794 25.5631 4.66794 26.0917 4.93621C26.652 5.22595 27.022 5.68738 27.2017 6.3205C27.2652 6.55658 27.3074 9.01396 27.3074 12.6839V18.6718H31.959V11.6967H37.7522C42.2452 11.6967 43.6512 11.7289 44.0635 11.8469C45.2687 12.1688 45.6281 12.4586 48.5565 15.3988C50.3431 17.1909 51.5271 18.3069 51.8231 18.4571C53.6097 19.3693 55.6818 17.2446 54.7832 15.4203C54.54 14.9374 50.9034 11.1387 49.2013 9.58269C48.1547 8.62764 47.1399 7.96233 46.2096 7.59748C44.8458 7.07166 44.6344 7.06093 38.0905 6.98582L31.9061 6.92143L31.8321 6.21319C31.6735 4.77525 30.7961 2.91881 29.8235 1.97449C28.9566 1.11601 27.7409 0.493621 26.356 0.160964C25.4363 -0.0536545 19.9601 -0.0536545 19.0087 0.160964Z" fill="#DFDEDC"/>
<path d="M10.805 23.5007C8.77529 23.7475 7.08383 24.5523 5.55094 26.0225C4.12376 27.3638 3.23574 29.0378 2.88688 30.9909C2.83402 31.3342 2.28429 37.5904 1.67114 44.9088C-0.115473 66.3385 -0.0626152 65.6088 0.0431013 66.6926C0.254534 68.9353 1.07912 70.5986 2.84459 72.337C3.8489 73.3243 4.74749 73.9252 5.83637 74.3544C7.58069 75.0412 6.95697 75.0197 23.0259 74.9876L37.6148 74.9554L38.4605 74.7193C39.5917 74.3974 41.0611 73.6462 41.8646 72.9701C43.3235 71.7683 44.5921 69.8475 45.0678 68.1412C45.5118 66.5423 45.5012 66.5209 44.0212 48.772C43.26 39.6829 42.5835 31.8708 42.52 31.4094C42.0866 28.115 40.0145 25.4108 36.917 24.0802C35.3947 23.4363 35.9445 23.4685 23.1845 23.4363C16.7569 23.4256 11.1856 23.4578 10.805 23.5007ZM35.0459 28.4047C36.5048 28.9627 37.4351 30.0143 37.8262 31.4952C38.0059 32.2035 40.7334 64.2674 40.7334 65.7268C40.7334 67.1325 40.3528 68.0983 39.4225 69.0426C38.7671 69.6972 38.0059 70.105 37.0968 70.2767C36.6633 70.3625 32.1915 70.3947 22.6136 70.3947C7.49612 70.3947 8.0247 70.4162 6.88296 69.7831C6.21695 69.4075 5.37122 68.4954 5.05407 67.7979C4.53606 66.6496 4.52548 66.1238 4.88492 61.8637C5.86808 50.2206 7.30583 32.6112 7.30583 32.2142C7.29526 31.1947 8.50043 29.3598 9.57874 28.7159C10.5936 28.1042 10.1813 28.1257 22.8145 28.1472L34.4433 28.1686L35.0459 28.4047Z" fill="#DFDEDC"/>
<path d="M21.7572 40.0907C21.2075 40.2945 20.8798 40.6165 20.6049 41.2067C20.4041 41.6466 20.3829 41.9256 20.3512 44.2864L20.3089 46.894H17.962C16.112 46.894 15.4882 46.9262 15.0442 47.0657C13.7545 47.452 13.1519 48.7612 13.6171 50.124C13.8285 50.7142 14.1351 51.0469 14.7271 51.3366C15.1605 51.5405 15.4142 51.562 17.7612 51.5942L20.3089 51.6371L20.3618 54.1696C20.3829 55.7148 20.4569 56.8738 20.5309 57.1206C20.7212 57.7108 21.2075 58.2259 21.7784 58.419C22.751 58.7517 23.6496 58.58 24.3262 57.9147C24.897 57.3567 24.9816 56.8416 24.9816 54.073V51.6371L27.6034 51.5942C30.0983 51.562 30.2357 51.5513 30.722 51.3044C31.3246 51.004 31.7052 50.4782 31.8426 49.7592C32.0435 48.6646 31.5995 47.6345 30.722 47.2052C30.2357 46.9584 30.0983 46.9477 27.6034 46.9155L24.9922 46.8726L24.9605 44.222C24.9287 41.6252 24.9287 41.5608 24.6644 41.0457C24.1676 40.0799 22.9095 39.6614 21.7572 40.0907Z" fill="#DFDEDC"/>
</svg>
