<svg width="100" height="75" viewBox="0 0 100 75" fill="none" xmlns="http://www.w3.org/2000/svg">
<path d="M10.3811 0.276913C5.02544 1.36604 1.22289 5.22264 0.294564 10.5255C-0.098188 12.7573 -0.098188 62.2502 0.294564 64.482C1.00866 68.5707 3.40087 71.8024 7.06061 73.57C10.2383 75.1055 6.84638 74.9984 50.0134 74.9984C93.1804 74.9984 89.7884 75.1055 92.984 73.57C95.7868 72.1952 97.8577 69.9634 99.0181 67.0531C100.018 64.5535 99.9821 65.2319 100 37.5752C100 9.79341 100.018 10.3648 99.0181 7.88297C97.3757 3.84783 93.9659 1.11608 89.5028 0.259059C87.6283 -0.098033 12.1664 -0.0801784 10.3811 0.276913ZM90.4133 3.65143C93.6267 4.82984 95.6262 6.93668 96.5188 10.1148C96.733 10.8468 96.8401 12.1681 96.8937 14.5606L96.9829 17.953L94.1623 20.2026C92.6091 21.4525 83.6651 28.63 74.2926 36.1647C55.3334 51.4125 55.8154 51.0375 54.53 51.6803C51.8522 53.0194 48.1746 53.0194 45.4967 51.6803C44.2114 51.0375 44.6934 51.4125 25.7342 36.1647C16.3617 28.63 7.41765 21.4525 5.8645 20.2026L3.04383 17.953L3.13309 14.5606C3.22235 10.9718 3.41873 9.81127 4.22208 8.22221C4.90047 6.90097 5.98947 5.65115 7.14987 4.86554C8.29242 4.11565 10.5061 3.27649 11.7201 3.16936C12.1128 3.13365 29.6617 3.11579 50.7275 3.11579L89.0208 3.13365L90.4133 3.65143ZM5.9002 24.2556C14.0587 30.8797 40.9801 52.5016 41.8727 53.1622C44.2649 54.9298 46.9071 55.769 50.0134 55.769C53.1554 55.7511 55.8333 54.8763 58.3326 53.0194C59.1181 52.448 86.3072 30.594 94.1266 24.2556C95.5547 23.0951 96.7866 22.1488 96.858 22.1488C96.9294 22.1488 96.9472 31.5225 96.9115 42.9851C96.8758 61.8931 96.8401 63.9285 96.5545 64.8213C95.6976 67.6423 94.0552 69.6777 91.7522 70.7847C89.1636 72.0345 91.4487 71.9631 50.0134 71.9631C8.56021 71.9631 10.8096 72.0345 8.25672 70.7847C5.95376 69.6599 4.3292 67.6423 3.47228 64.8213C3.18665 63.9285 3.15094 61.8931 3.11524 42.9851C3.07953 31.5225 3.09738 22.1488 3.16879 22.1488C3.2402 22.1488 4.47202 23.0951 5.9002 24.2556Z" fill="#373435"/>
</svg>
