<svg width="139" height="75" viewBox="0 0 139 75" fill="none" xmlns="http://www.w3.org/2000/svg">
<path fill-rule="evenodd" clip-rule="evenodd" d="M137.584 7.58942C137.658 7.71573 137.632 7.71047 137.726 7.84205C137.9 8.08942 137.811 7.94205 137.911 8.05258L138.458 9.07889C138.868 8.51573 138.463 7.85784 138.284 7.321C138.179 7.00521 138.142 6.72626 138.042 6.42099C137.932 6.07889 137.847 5.95784 137.753 5.69468C137.547 5.14731 137.547 4.48942 137.074 4.18942C136.532 3.84205 125.07 4.04731 124.381 4.05257C115.382 4.1052 106.383 4.00521 97.3836 4.04205V65.8052C97.3941 66.2947 97.3994 66.7894 97.3836 67.2684V72.8684C98.6466 72.8736 100.52 72.8789 102.788 72.8842V72.6368C109.987 72.6315 117.181 72.5736 124.381 72.6157C125.065 72.621 136.527 72.8263 137.074 72.4789C137.547 72.1789 137.547 71.5263 137.753 70.9736C137.853 70.7105 137.932 70.5894 138.042 70.2473C138.142 69.9368 138.184 69.6578 138.284 69.3473C138.463 68.8052 138.868 68.1526 138.458 67.5842L137.911 68.6105C137.816 68.721 137.905 68.5736 137.726 68.821C137.632 68.9526 137.658 68.9421 137.584 69.0736C137.153 69.7999 136.184 70.5999 135.385 70.9105C132.459 72.042 128.18 71.721 124.886 71.6842L102.972 71.6789C102.893 71.5315 102.83 71.2789 102.788 70.9473V71.6526C102.725 71.5052 102.699 71.3105 102.699 71.0578C102.704 59.0789 102.709 49.1473 102.715 39.1684H122.118L122.123 39.1736C122.349 39.321 122.507 39.6105 122.586 40.042C122.639 40.3263 122.67 40.6894 122.691 41.1421C122.707 41.3473 122.718 41.5368 122.718 41.7157C122.754 41.9052 122.77 42.0421 122.77 42.1368C122.781 42.2736 122.854 42.3421 122.981 42.3421C123.096 42.3421 123.154 42.1999 123.154 41.921C123.117 39.821 123.096 38.4894 123.081 37.9315C123.096 37.5842 123.117 36.3315 123.154 34.1736C123.154 33.8789 123.096 33.7263 122.981 33.7263C122.854 33.742 122.781 33.8157 122.77 33.942C122.77 34.4263 122.718 35.0052 122.618 35.6684C122.518 36.0684 122.344 36.3105 122.128 36.4473C121.918 36.5789 121.586 36.8842 121.207 36.9157C120.423 36.9789 119.36 37.021 118.013 37.0368V37.0789H102.715C102.715 29.0526 102.72 20.9052 102.715 11.5473C102.709 10.0947 102.515 5.79468 102.967 4.97363L124.88 4.96836C128.17 4.93152 132.453 4.61047 135.379 5.74205C136.179 6.0631 137.153 6.8631 137.584 7.58942Z" fill="#E0E0E0"/>
<path fill-rule="evenodd" clip-rule="evenodd" d="M89.6529 6.56842C89.6897 5.37369 89.7055 4.71579 89.7055 4.58421C89.7055 4.44737 89.695 4.32105 89.6792 4.2C89.6318 4.08948 89.5582 4.03158 89.4529 4.03158C89.2792 4.04737 89.074 4.15263 88.8477 4.35263C87.1584 5.51052 85.5165 6.64211 83.9167 7.75263C83.8009 7.83684 83.743 7.92631 83.743 8.02105C83.743 8.15789 83.7956 8.23684 83.8956 8.25263C83.9851 8.25263 84.0904 8.21579 84.2009 8.14737C84.5903 7.94737 85.106 7.69474 85.7375 7.37895C86.3848 7.06842 86.8374 6.88421 87.1058 6.87368C87.2058 6.86842 87.3584 6.89474 87.5163 6.94211V57.4421L60.9562 15.3368C60.8193 15.2105 60.6773 15.0895 60.5404 14.9632C59.5932 13.5579 58.5617 12.2316 57.446 10.9895C51.3573 4.2 42.9424 0 33.6488 0C24.3551 0 15.9403 4.2 9.8515 10.9895C3.76799 17.7737 0 27.1474 0 37.5C0 47.8526 3.76273 57.2263 9.8515 64.0105C15.9403 70.8 24.3551 75 33.6488 75C42.9424 75 51.3573 70.8 57.446 64.0105C63.5296 57.2263 67.2976 47.8526 67.2976 37.5C67.2976 36.8632 67.2818 36.2263 67.2554 35.6L89.8055 72.8316L89.6476 6.68947C89.6476 6.65263 89.6476 6.61053 89.6529 6.56842ZM64.9504 32.3263C65.0346 32.9895 65.1452 33.6263 65.2609 34.2632C65.4715 35.4368 65.6767 36.6 65.6767 37.8789C65.6767 47.6579 61.9561 56.5105 56.3356 63.0158C50.4153 69.8684 42.3899 74.1263 34.3908 74.1263C26.597 74.1263 19.4451 69.9632 14.2457 63.2895C9.04633 56.6158 5.79407 47.4316 5.79407 37.3895C5.79407 27.3421 8.95687 18.2421 14.0721 11.6632C19.1767 5.08421 26.2338 1.01579 34.0224 1.01579C39.3744 1.01579 44.8212 3.04211 49.6312 6.50526L49.7311 6.67368V37.5263C49.689 37.5789 49.6469 37.6316 49.6206 37.679C49.4996 37.8684 49.2575 37.9947 48.8997 38.0632C48.6628 38.1053 48.3629 38.1368 47.984 38.1474C47.8103 38.1632 47.6524 38.1684 47.5051 38.1684C47.3472 38.1947 47.2314 38.2105 47.1525 38.2105C47.042 38.2211 46.9788 38.2842 46.9788 38.3842C46.9788 38.4789 47.0999 38.5263 47.3314 38.5263C49.0786 38.5 50.1837 38.4789 50.6521 38.4632C50.9415 38.4789 51.9835 38.4947 53.778 38.5263C54.0254 38.5263 54.1464 38.4789 54.1464 38.3842C54.1306 38.2789 54.0727 38.2211 53.9675 38.2105C53.5623 38.2105 53.0834 38.1684 52.5308 38.0842C52.1993 38 51.994 37.8579 51.8835 37.679C51.8677 37.6474 51.8414 37.6158 51.8151 37.5789V10.1158L64.8505 31.6368C64.882 31.8632 64.9241 32.0947 64.9504 32.3263Z" fill="#E0E0E0"/>
</svg>
