<svg width="75" height="75" viewBox="0 0 75 75" fill="none" xmlns="http://www.w3.org/2000/svg">
<path d="M37.5084 18.2709C26.867 18.2709 18.2836 26.8562 18.2836 37.5C18.2836 48.1438 26.867 56.7291 37.5084 56.7291C48.1497 56.7291 56.7331 48.1438 56.7331 37.5C56.7331 26.8562 48.1497 18.2709 37.5084 18.2709ZM37.5084 50.0014C30.6316 50.0014 25.0098 44.395 25.0098 37.5C25.0098 30.605 30.6149 24.9986 37.5084 24.9986C44.4018 24.9986 50.007 30.605 50.007 37.5C50.007 44.395 44.3851 50.0014 37.5084 50.0014ZM62.0036 17.4844C62.0036 19.978 59.9958 21.9695 57.5195 21.9695C55.0265 21.9695 53.0354 19.9612 53.0354 17.4844C53.0354 15.0075 55.0432 12.9993 57.5195 12.9993C59.9958 12.9993 62.0036 15.0075 62.0036 17.4844ZM74.7365 22.0364C74.452 16.0284 73.08 10.7065 68.6796 6.32182C64.2959 1.93713 58.9752 0.564822 52.9685 0.263584C46.7777 -0.0878612 28.2223 -0.0878612 22.0315 0.263584C16.0416 0.548087 10.7209 1.92039 6.32041 6.30509C1.91997 10.6898 0.564696 16.0117 0.263525 22.0197C-0.0878416 28.2118 -0.0878416 46.7714 0.263525 52.9636C0.547964 58.9716 1.91997 64.2935 6.32041 68.6782C10.7209 73.0629 16.0248 74.4352 22.0315 74.7364C28.2223 75.0879 46.7777 75.0879 52.9685 74.7364C58.9752 74.4519 64.2959 73.0796 68.6796 68.6782C73.0633 64.2935 74.4353 58.9716 74.7365 52.9636C75.0878 46.7714 75.0878 28.2286 74.7365 22.0364ZM66.7387 59.6076C65.4336 62.8877 62.9071 65.4148 59.611 66.7369C54.6751 68.6949 42.9629 68.2431 37.5084 68.2431C32.0538 68.2431 20.3249 68.6782 15.4057 66.7369C12.1263 65.4315 9.59983 62.9044 8.27803 59.6076C6.32041 54.6706 6.77217 42.9558 6.77217 37.5C6.77217 32.0442 6.33714 20.3127 8.27803 15.3924C9.5831 12.1123 12.1096 9.58524 15.4057 8.26314C20.3416 6.30509 32.0538 6.75694 37.5084 6.75694C42.9629 6.75694 54.6919 6.32182 59.611 8.26314C62.8904 9.5685 65.4169 12.0956 66.7387 15.3924C68.6963 20.3294 68.2446 32.0442 68.2446 37.5C68.2446 42.9558 68.6963 54.6873 66.7387 59.6076Z" fill="#E0E0E0"/>
</svg>
