<svg width="76" height="76" viewBox="0 0 76 76" fill="none" xmlns="http://www.w3.org/2000/svg">
<path fill-rule="evenodd" clip-rule="evenodd" d="M6.46899 1.359C3.31751 2.50713 0.962337 5.4065 0.412932 8.81485C-0.206538 12.6583 2.68432 17.1048 6.53534 18.2319C9.02731 18.9612 9.64679 18.9645 12.0364 18.2603C14.323 17.5869 15.8912 16.3476 17.1464 14.2231C21.2321 7.30669 14.0138 -1.38997 6.46899 1.359ZM49.9346 25.9386C46.2671 27.2327 44.6415 28.1757 42.1784 30.4377L39.9252 32.5071V25.8084H25.462L25.6526 75.6392L40.6133 75.8381L40.7326 61.396C40.7326 61.396 40.7896 52.7612 40.852 46.9543C40.8883 43.5789 43.352 41.302 45.7238 40.2612C51.2307 37.8448 56.986 39.5797 59.0617 43.7236C59.7001 44.9986 59.7742 46.3975 59.944 60.3774L60.1294 75.6392H75.3288V58.1708C75.3288 43.8117 75.3725 40.5695 74.3358 37.6976C73.9812 36.7153 73.5003 35.7763 72.848 34.4507C70.9228 30.5385 66.8442 27.211 62.2488 25.8029C58.764 24.7353 53.1706 24.7967 49.9346 25.9386ZM1.54362 26.2608C1.44464 26.5175 1.4072 37.7329 1.45984 51.1835L1.55585 75.6392H17.126V25.9923L9.42472 25.893C3.4658 25.8158 1.68301 25.8993 1.54362 26.2608Z" fill="#E0E0E0"/>
<path fill-rule="evenodd" clip-rule="evenodd" d="M6.46899 1.359C3.31751 2.50713 0.962337 5.4065 0.412932 8.81485C-0.206538 12.6583 2.68432 17.1048 6.53534 18.2319C9.02731 18.9612 9.64679 18.9645 12.0364 18.2603C14.323 17.5869 15.8912 16.3476 17.1464 14.2231C21.2321 7.30669 14.0138 -1.38997 6.46899 1.359ZM49.9346 25.9386C46.2671 27.2327 44.6415 28.1757 42.1784 30.4377L39.9252 32.5071V25.8084H25.462L25.6526 75.6392L40.6133 75.8381L40.7326 61.396C40.7326 61.396 40.7896 52.7612 40.852 46.9543C40.8883 43.5789 43.352 41.302 45.7238 40.2612C51.2307 37.8448 56.986 39.5797 59.0617 43.7236C59.7001 44.9986 59.7742 46.3975 59.944 60.3774L60.1294 75.6392H75.3288V58.1708C75.3288 43.8117 75.3725 40.5695 74.3358 37.6976C73.9812 36.7153 73.5003 35.7763 72.848 34.4507C70.9228 30.5385 66.8442 27.211 62.2488 25.8029C58.764 24.7353 53.1706 24.7967 49.9346 25.9386ZM1.54362 26.2608C1.44464 26.5175 1.4072 37.7329 1.45984 51.1835L1.55585 75.6392H17.126V25.9923L9.42472 25.893C3.4658 25.8158 1.68301 25.8993 1.54362 26.2608Z" fill="#E0E0E0"/>
</svg>
