<svg width="58" height="77" viewBox="0 0 58 77" fill="none" xmlns="http://www.w3.org/2000/svg">
<path d="M27.1899 1.03571C26.9859 1.05721 26.3524 1.13245 25.7941 1.19695C17.5376 2.12137 10.344 6.49625 5.67349 13.4294C3.09667 17.2453 1.5828 21.631 1.08891 26.769C0.745332 30.3485 1.38954 34.0999 3.1611 38.808C4.83602 43.2367 8.05704 49.2132 12.502 56.1141C15.9163 61.4026 23.84 72.3237 25.7941 74.4305C27.716 76.5051 30.4646 76.5266 32.4079 74.4735C34.2439 72.5494 42.2535 61.4994 45.7644 56.0711C50.2524 49.1057 53.4627 43.1507 55.1591 38.6038C56.1468 35.9595 56.8555 33.154 57.1561 30.7462C57.4675 28.1987 56.9843 24.0173 56.0073 20.7711C54.6222 16.1812 52.5393 12.6985 49.0928 9.23727C44.5941 4.72265 39.7089 2.28261 33.1488 1.28294C31.8174 1.07871 28.124 0.928222 27.1899 1.03571ZM31.6993 3.45426C36.7026 3.94872 41.5664 5.94805 45.3027 9.06529C50.4778 13.3757 53.5486 18.6642 54.5685 24.9954C55.2557 29.2628 54.998 31.9931 53.4949 36.3895C52.5822 39.023 50.4134 43.7956 48.6526 47.0096C45.4101 52.9216 38.1199 63.5632 32.365 70.7759C30.4861 73.1407 30.0029 73.5491 29.1225 73.5491C28.2636 73.5491 27.7589 73.1299 26.0518 70.9908C21.6927 65.5518 17.8811 60.1665 13.3395 53.0506C10.2473 48.2135 9.14145 46.2787 7.43431 42.753C5.19034 38.1093 3.9234 34.4976 3.45099 31.4449C3.28994 30.37 3.28994 27.9192 3.45099 26.5003C4.27771 19.4059 7.36989 13.7089 12.9423 9.06529C16.6894 5.9373 21.5316 3.94872 26.5994 3.45426C28.7575 3.23928 29.4446 3.23928 31.6993 3.45426Z" fill="#373435"/>
<path d="M27.2436 17.5678C24.9459 17.9333 22.7771 19.0082 21.1344 20.6098C16.8182 24.8235 16.217 31.0902 19.6634 35.981C22.5409 40.0657 27.6086 41.7855 32.5475 40.3559C37.1321 39.023 40.5464 34.6051 40.7933 29.6606C40.9329 27.0485 40.0954 24.3505 38.4957 22.2007C37.7548 21.2118 36.4127 19.9004 35.5645 19.3414C33.1702 17.7613 30.1425 17.1164 27.2436 17.5678ZM31.0551 19.9649C31.9785 20.1476 33.5138 20.8355 34.4694 21.4912C35.2746 22.0287 36.4235 23.1896 36.9603 23.9743C38.399 26.0919 38.85 28.9296 38.1843 31.5524C37.175 35.4866 33.2454 38.5071 29.1225 38.5071C25.5901 38.5071 22.1436 36.3142 20.6512 33.1003C19.4809 30.585 19.438 27.8655 20.5546 25.3287C22.0363 21.932 25.9552 19.5242 29.6057 19.7606C29.96 19.7821 30.6149 19.8681 31.0551 19.9649Z" fill="#373435"/>
<path d="M27.1899 1.03571C26.9859 1.05721 26.3524 1.13245 25.7941 1.19695C17.5376 2.12137 10.344 6.49625 5.67349 13.4294C3.09667 17.2453 1.5828 21.631 1.08891 26.769C0.745332 30.3485 1.38954 34.0999 3.1611 38.808C4.83602 43.2367 8.05704 49.2132 12.502 56.1141C15.9163 61.4026 23.84 72.3237 25.7941 74.4305C27.716 76.5051 30.4646 76.5266 32.4079 74.4735C34.2439 72.5494 42.2535 61.4994 45.7644 56.0711C50.2524 49.1057 53.4627 43.1507 55.1591 38.6038C56.1468 35.9595 56.8555 33.154 57.1561 30.7462C57.4675 28.1987 56.9843 24.0173 56.0073 20.7711C54.6222 16.1812 52.5393 12.6985 49.0928 9.23727C44.5941 4.72265 39.7089 2.28261 33.1488 1.28294C31.8174 1.07871 28.124 0.928222 27.1899 1.03571ZM31.6993 3.45426C36.7026 3.94872 41.5664 5.94805 45.3027 9.06529C50.4778 13.3757 53.5486 18.6642 54.5685 24.9954C55.2557 29.2628 54.998 31.9931 53.4949 36.3895C52.5822 39.023 50.4134 43.7956 48.6526 47.0096C45.4101 52.9216 38.1199 63.5632 32.365 70.7759C30.4861 73.1407 30.0029 73.5491 29.1225 73.5491C28.2636 73.5491 27.7589 73.1299 26.0518 70.9908C21.6927 65.5518 17.8811 60.1665 13.3395 53.0506C10.2473 48.2135 9.14145 46.2787 7.43431 42.753C5.19034 38.1093 3.9234 34.4976 3.45099 31.4449C3.28994 30.37 3.28994 27.9192 3.45099 26.5003C4.27771 19.4059 7.36989 13.7089 12.9423 9.06529C16.6894 5.9373 21.5316 3.94872 26.5994 3.45426C28.7575 3.23928 29.4446 3.23928 31.6993 3.45426Z" stroke="#373435"/>
<path d="M27.2436 17.5678C24.9459 17.9333 22.7771 19.0082 21.1344 20.6098C16.8182 24.8235 16.217 31.0902 19.6634 35.981C22.5409 40.0657 27.6086 41.7855 32.5475 40.3559C37.1321 39.023 40.5464 34.6051 40.7933 29.6606C40.9329 27.0485 40.0954 24.3505 38.4957 22.2007C37.7548 21.2118 36.4127 19.9004 35.5645 19.3414C33.1702 17.7613 30.1425 17.1164 27.2436 17.5678ZM31.0551 19.9649C31.9785 20.1476 33.5138 20.8355 34.4694 21.4912C35.2746 22.0287 36.4235 23.1896 36.9603 23.9743C38.399 26.0919 38.85 28.9296 38.1843 31.5524C37.175 35.4866 33.2454 38.5071 29.1225 38.5071C25.5901 38.5071 22.1436 36.3142 20.6512 33.1003C19.4809 30.585 19.438 27.8655 20.5546 25.3287C22.0363 21.932 25.9552 19.5242 29.6057 19.7606C29.96 19.7821 30.6149 19.8681 31.0551 19.9649Z" stroke="#373435"/>
</svg>
