<svg width="79" height="79" viewBox="0 0 79 79" fill="none" xmlns="http://www.w3.org/2000/svg">
<path fill-rule="evenodd" clip-rule="evenodd" d="M39.5 79C61.3153 79 79 61.3152 79 39.5C79 17.6848 61.3153 0 39.5 0C17.6848 0 0 17.6848 0 39.5C0 61.3152 17.6848 79 39.5 79ZM39.5 75C59.1061 75 75 59.1061 75 39.5C75 19.8939 59.1061 4 39.5 4C19.8939 4 4 19.8939 4 39.5C4 59.1061 19.8939 75 39.5 75Z" fill="#E0E0E0"/>
<path d="M57.6352 34.2365C61.1653 36.8341 61.1653 42.1096 57.6352 44.7072L36.8524 60C32.5602 63.1584 26.5 60.0936 26.5 54.7646L26.5 24.1791C26.5 18.8501 32.5602 15.7853 36.8524 18.9437L57.6352 34.2365Z" fill="#E0E0E0"/>
</svg>
