<svg width="77" height="77" viewBox="0 0 77 77" fill="none" xmlns="http://www.w3.org/2000/svg">
<path d="M34.539 1.15294C28.9246 1.75397 22.9989 3.81465 18.4903 6.7232C9.09719 12.7979 3.09636 21.9529 1.43244 32.75C0.992309 35.6156 0.874225 39.4579 1.1426 41.9801C2.44153 54.0221 8.37795 63.703 18.5117 70.2714C23.0741 73.2337 29.3862 75.3587 35.2368 75.8954C36.7504 76.0349 40.2714 76.0349 41.7851 75.8954C53.2929 74.8436 63.5018 68.7367 69.9428 59.045C73.174 54.1831 75.1707 48.4519 75.8792 41.9801C76.0403 40.4882 76.0403 36.6781 75.8792 35.0575C74.6662 23.1657 68.6868 13.3453 58.6389 6.7876C54.1517 3.85758 48.0006 1.72177 42.3755 1.15294C40.3573 0.94902 36.4605 0.94902 34.539 1.15294ZM40.9263 3.39607C45.5745 3.63219 50.738 5.1133 55.2145 7.50669C59.7661 9.93228 63.8454 13.5063 67.0229 17.8315C70.2756 22.2641 72.5085 27.8022 73.335 33.5013C74.6447 42.4952 72.2938 51.9937 66.9478 59.2812C61.8916 66.1715 54.4416 71.0335 46.079 72.8902C41.1624 73.9849 35.8594 73.9849 30.9428 72.8902C21.7644 70.851 13.8635 65.3129 8.7322 57.3278C6.42419 53.7324 4.58851 48.8919 3.83707 44.4486C3.45061 42.1303 3.354 40.9605 3.354 38.492C3.354 32.7392 4.59925 27.5661 7.24004 22.3071C10.2458 16.3075 15.7099 10.7587 21.8074 7.50669C24.6306 6.00411 27.9585 4.75912 30.9428 4.10443C33.3045 3.58926 37.0832 3.21362 38.994 3.29948C39.4126 3.32094 40.2822 3.36387 40.9263 3.39607Z" fill="#373435"/>
<path d="M38.0171 15.2127C37.3515 15.5347 37.3837 14.8478 37.3837 27.4373C37.3837 38.8032 37.3837 38.9534 37.5984 39.1896C37.7165 39.3291 41.0658 41.6044 45.0377 44.2447C50.695 48.0226 52.3267 49.0636 52.5844 49.0636C53.5398 49.0636 54.0765 48.0333 53.5613 47.2069C53.4432 47.0137 50.9634 45.3179 46.5621 42.4308L42.8787 40.0067C40.9215 38.7186 39.7385 36.5367 39.7271 34.1936L39.6917 26.9543C39.6381 14.9015 39.6703 15.5347 38.994 15.202C38.5538 14.9981 38.4357 14.9981 38.0171 15.2127Z" fill="#373435"/>
<path d="M34.539 1.15294C28.9246 1.75397 22.9989 3.81465 18.4903 6.7232C9.09719 12.7979 3.09636 21.9529 1.43244 32.75C0.992309 35.6156 0.874225 39.4579 1.1426 41.9801C2.44153 54.0221 8.37795 63.703 18.5117 70.2714C23.0741 73.2337 29.3862 75.3587 35.2368 75.8954C36.7504 76.0349 40.2714 76.0349 41.7851 75.8954C53.2929 74.8436 63.5018 68.7367 69.9428 59.045C73.174 54.1831 75.1707 48.4519 75.8792 41.9801C76.0403 40.4882 76.0403 36.6781 75.8792 35.0575C74.6662 23.1657 68.6868 13.3453 58.6389 6.7876C54.1517 3.85758 48.0006 1.72177 42.3755 1.15294C40.3573 0.94902 36.4605 0.94902 34.539 1.15294ZM40.9263 3.39607C45.5745 3.63219 50.738 5.1133 55.2145 7.50669C59.7661 9.93228 63.8454 13.5063 67.0229 17.8315C70.2756 22.2641 72.5085 27.8022 73.335 33.5013C74.6447 42.4952 72.2938 51.9937 66.9478 59.2812C61.8916 66.1715 54.4416 71.0335 46.079 72.8902C41.1624 73.9849 35.8594 73.9849 30.9428 72.8902C21.7644 70.851 13.8635 65.3129 8.7322 57.3278C6.42419 53.7324 4.58851 48.8919 3.83707 44.4486C3.45061 42.1303 3.354 40.9605 3.354 38.492C3.354 32.7392 4.59925 27.5661 7.24004 22.3071C10.2458 16.3075 15.7099 10.7587 21.8074 7.50669C24.6306 6.00411 27.9585 4.75912 30.9428 4.10443C33.3045 3.58926 37.0832 3.21362 38.994 3.29948C39.4126 3.32094 40.2822 3.36387 40.9263 3.39607Z" stroke="#373435"/>
<path d="M38.0171 15.2127C37.3515 15.5347 37.3837 14.8478 37.3837 27.4373C37.3837 38.8032 37.3837 38.9534 37.5984 39.1896C37.7165 39.3291 41.0658 41.6044 45.0377 44.2447C50.695 48.0226 52.3267 49.0636 52.5844 49.0636C53.5398 49.0636 54.0765 48.0333 53.5613 47.2069C53.4432 47.0137 50.9634 45.3179 46.5621 42.4308L42.8787 40.0067C40.9215 38.7186 39.7385 36.5367 39.7271 34.1936L39.6917 26.9543C39.6381 14.9015 39.6703 15.5347 38.994 15.202C38.5538 14.9981 38.4357 14.9981 38.0171 15.2127Z" stroke="#373435"/>
</svg>
