<svg width="85" height="68" viewBox="0 0 85 68" fill="none" xmlns="http://www.w3.org/2000/svg">
<path d="M5 29.5C2.51472 29.5 0.500001 31.5147 0.500001 34C0.500001 36.4853 2.51472 38.5 5 38.5V29.5ZM83.182 37.182C84.9393 35.4246 84.9393 32.5754 83.182 30.818L54.5442 2.1802C52.7868 0.422843 49.9376 0.422843 48.1802 2.1802C46.4228 3.93756 46.4228 6.7868 48.1802 8.54416L73.636 34L48.1802 59.4558C46.4228 61.2132 46.4228 64.0624 48.1802 65.8198C49.9376 67.5772 52.7868 67.5772 54.5442 65.8198L83.182 37.182ZM5 38.5H80V29.5H5V38.5Z" fill="#D2AE6D"/>
</svg>
