<svg width="77" height="77" viewBox="0 0 77 77" fill="none" xmlns="http://www.w3.org/2000/svg">
<path d="M17.4901 1.30621C9.89482 3.34513 5.11024 4.70797 4.40221 5.05137C3.31871 5.57719 2.10647 6.75762 1.62372 7.7878C0.990787 9.10773 0.915693 9.79452 1.06588 12.8529C1.51645 22.5538 3.54399 30.7953 7.4489 38.8329C13.8963 52.0644 24.388 62.6667 37.551 69.2556C45.9186 73.4408 55.005 75.6836 64.7458 75.9733C66.6554 76.027 67.1274 76.0055 67.8354 75.8553C69.7235 75.4368 71.1396 74.3315 71.9656 72.6574C72.3089 71.9599 72.7809 70.3717 74.197 65.2207C75.9563 58.7713 75.9885 58.6533 75.9992 57.548C76.0207 55.5949 75.5916 54.4896 74.3472 53.2555C73.7571 52.6761 73.3173 52.3434 72.738 52.0644C71.0001 51.2166 57.9015 45.8403 57.3222 45.733C56.4425 45.5613 54.8977 45.6686 54.1683 45.9262C53.3959 46.2052 52.4304 46.8598 51.8189 47.5251C51.5507 47.8149 50.0595 49.607 48.504 51.5171L46.7217 53.7068C46.1169 54.4498 45.0729 54.6648 44.2236 54.2214V54.2214C40.0076 52.0322 36.2636 49.4138 32.8308 46.2589C29.0975 42.8249 25.1819 37.513 22.6394 32.4479C22.103 31.3748 22.0923 31.3319 22.2854 31.1495C22.3927 31.0529 23.9482 29.7651 25.7504 28.3057C27.5527 26.8463 29.2584 25.4298 29.5373 25.1508C30.5887 24.1313 31.2645 22.7684 31.3932 21.3841C31.522 20.0106 31.3396 19.4418 28.1427 11.7905C26.5228 7.88439 24.9995 4.32166 24.7635 3.86022C23.4976 1.42426 20.7084 0.447725 17.4901 1.30621ZM20.9551 3.52756C21.5881 3.74218 22.4034 4.47189 22.7681 5.14795C22.9183 5.42696 24.388 8.87165 26.0294 12.7992C28.9473 19.8067 29.001 19.9569 29.0546 20.8047C29.0975 21.5773 29.0653 21.7597 28.84 22.2641C28.6898 22.586 28.4109 23.026 28.2178 23.2513C28.014 23.4767 26.1796 25.022 24.1413 26.696C22.0923 28.3701 20.3115 29.8724 20.1935 30.0549C19.8824 30.4734 19.7429 31.1602 19.8609 31.6645C20.1506 32.9952 22.8647 37.8242 24.8386 40.5606C29.7304 47.3212 35.8667 52.558 43.183 56.2281C45.2213 57.2368 45.7255 57.3763 46.4872 57.0758C47.0772 56.8505 47.1309 56.7968 50.7354 52.4722C53.9752 48.5982 54.3721 48.2227 55.4341 47.9973C55.8311 47.9115 56.1636 47.9115 56.6356 47.9973C57.5046 48.1475 71.5365 53.996 72.2016 54.4789C73.21 55.2086 73.7893 56.3783 73.6713 57.4836C73.5855 58.3099 70.099 71.0263 69.7664 71.756C69.23 72.8828 68.286 73.5266 66.8914 73.7091C66.1941 73.7949 62.4179 73.591 59.8111 73.3227C47.796 72.0887 37.1004 67.6782 27.3167 59.9303C20.6226 54.6291 14.8296 47.6968 10.635 39.9704C6.0972 31.6216 3.43671 21.2661 3.3938 11.7798C3.38308 9.53698 3.3938 9.39747 3.62981 8.88238C3.94092 8.20632 4.59531 7.53026 5.23898 7.22979C5.5179 7.10102 8.73623 6.17814 12.3944 5.18014C19.5391 3.23781 19.8931 3.1627 20.9551 3.52756Z" fill="#373435" stroke="#373435"/>
</svg>
