<svg width="79" height="79" viewBox="0 0 79 79" fill="none" xmlns="http://www.w3.org/2000/svg">
<path class="tel" d="M57.4961 45.096C57.35 45.0259 51.8823 42.3334 50.9107 41.9838C50.514 41.8413 50.0891 41.7023 49.6372 41.7023C48.8989 41.7023 48.2787 42.0702 47.7955 42.7929C47.2494 43.6048 45.5959 45.5375 45.0851 46.1148C45.0183 46.1911 44.9273 46.2821 44.8727 46.2821C44.8238 46.2821 43.9776 45.9337 43.7214 45.8224C37.8561 43.2746 33.4041 37.1477 32.7936 36.1145C32.7064 35.966 32.702 35.8985 32.702 35.8985C32.7235 35.8199 32.9207 35.6222 33.0225 35.5201C33.3203 35.2255 33.6429 34.8371 33.9551 34.4614C34.1029 34.2834 34.251 34.1051 34.3963 33.9371C34.8493 33.4101 35.0509 33.0011 35.2847 32.5272L35.4071 32.281C35.9779 31.147 35.4904 30.19 35.3329 29.881C35.2036 29.6224 32.8949 24.0505 32.6494 23.4651C32.0592 22.0525 31.2792 21.3948 30.1954 21.3948C30.0948 21.3948 30.1954 21.3948 29.7736 21.4126C29.2601 21.4343 26.4634 21.8024 25.2269 22.5819C23.9156 23.4086 21.6972 26.0438 21.6972 30.6782C21.6972 34.8493 24.3442 38.7875 25.4806 40.2853C25.5088 40.3231 25.5607 40.3998 25.636 40.5098C29.9882 46.8658 35.4137 51.5762 40.9138 53.7734C46.2088 55.8885 48.7162 56.1329 50.1417 56.1329C50.7407 56.1329 51.2205 56.086 51.6434 56.0443L51.9118 56.0187C53.741 55.8566 57.7608 53.7736 58.6752 51.2326C59.3955 49.2312 59.5854 47.0446 59.1062 46.251C58.7779 45.7114 58.2123 45.4399 57.4961 45.096Z" stroke="#373435" stroke-width="3"/>
<path d="M40.1657 2C19.8534 2 3.32803 18.4011 3.32803 38.5608C3.32803 45.0812 5.073 51.4637 8.3786 57.0498L2.05157 75.7133C1.93371 76.0613 2.02137 76.446 2.27876 76.708C2.46455 76.8977 2.71658 77 2.97397 77C3.07259 77 3.17194 76.9851 3.26886 76.9542L22.7299 70.7701C28.0554 73.6155 34.0744 75.1175 40.1659 75.1175C60.4763 75.1177 76.9999 58.7183 76.9999 38.5608C76.9999 18.4011 60.4763 2 40.1657 2Z" stroke="#373435" stroke-width="3"/>
</svg>
